<svg width="40" height="40" viewBox="0 0 40 40" fill="none" xmlns="http://www.w3.org/2000/svg">
<path d="M30 16.25H27.5C27.499 15.2557 27.1036 14.3025 26.4006 13.5994C25.6975 12.8964 24.7443 12.501 23.75 12.5V10C25.407 10.002 26.9956 10.6611 28.1672 11.8328C29.3389 13.0044 29.998 14.593 30 16.25V16.25Z" fill="#6C6C6C"/>
<path d="M35 16.25H32.5C32.4974 13.9302 31.5747 11.7061 29.9343 10.0657C28.2939 8.42537 26.0699 7.50265 23.75 7.5V5C26.7327 5.00331 29.5923 6.18964 31.7013 8.2987C33.8104 10.4078 34.9967 13.2673 35 16.25V16.25ZM32.5 36.25H32.2875C7.72505 34.8375 4.23754 14.1125 3.75004 7.7875C3.67385 6.79594 3.99465 5.81471 4.64187 5.05966C5.2891 4.3046 6.20974 3.83756 7.20129 3.76125C7.30046 3.75375 7.40004 3.75 7.50004 3.75H14.0875C14.5882 3.74952 15.0775 3.89939 15.4921 4.1802C15.9066 4.46102 16.2273 4.85984 16.4125 5.325L18.3125 10C18.4955 10.4544 18.5409 10.9526 18.4431 11.4326C18.3453 11.9126 18.1087 12.3533 17.7625 12.7L15.1 15.3875C15.5142 17.7517 16.6455 19.9312 18.3405 21.6306C20.0354 23.3301 22.212 24.4671 24.575 24.8875L27.2875 22.2C27.6394 21.8577 28.0843 21.6266 28.5666 21.5354C29.049 21.4443 29.5475 21.4972 30 21.6875L34.7125 23.575C35.1707 23.7661 35.5616 24.0893 35.8354 24.5033C36.1092 24.9174 36.2536 25.4036 36.25 25.9V32.5C36.25 33.4946 35.855 34.4484 35.1517 35.1517C34.4484 35.8549 33.4946 36.25 32.5 36.25ZM7.50004 6.25C7.33589 6.24951 7.17325 6.28135 7.0214 6.34372C6.86956 6.40608 6.73148 6.49774 6.61506 6.61346C6.49864 6.72919 6.40615 6.86671 6.34288 7.01818C6.27961 7.16965 6.24679 7.3321 6.24629 7.49625C6.24629 7.53125 6.24754 7.56583 6.25004 7.6C6.82504 15 10.5125 32.5 32.425 33.75C32.7559 33.7698 33.0811 33.6574 33.3291 33.4376C33.5771 33.2177 33.7276 32.9083 33.7475 32.5775L33.75 32.5V25.9L29.0375 24.0125L25.45 27.575L24.85 27.5C13.975 26.1375 12.5 15.2625 12.5 15.15L12.425 14.55L15.975 10.9625L14.1 6.25H7.50004Z" fill="#6C6C6C"/>
</svg>
