<svg width="13" height="13" viewBox="0 0 13 13" fill="none" xmlns="http://www.w3.org/2000/svg">
<g clip-path="url(#clip0_14128_2)">
<path d="M8.874 4.48145H8.27859C8.1491 4.48145 8.02595 4.54365 7.94978 4.65029L5.95408 7.41787L5.05017 6.16357C4.974 6.0582 4.85213 5.99473 4.72136 5.99473H4.12595C4.04343 5.99473 3.99519 6.08867 4.04343 6.15596L5.62527 8.34971C5.66264 8.40186 5.7119 8.44436 5.76897 8.47368C5.82605 8.503 5.88928 8.51829 5.95344 8.51829C6.01761 8.51829 6.08084 8.503 6.13792 8.47368C6.19499 8.44436 6.24425 8.40186 6.28162 8.34971L8.95525 4.64268C9.00476 4.57539 8.95652 4.48145 8.874 4.48145V4.48145Z" fill="white"/>
<path d="M6.5 0.8125C3.35918 0.8125 0.8125 3.35918 0.8125 6.5C0.8125 9.64082 3.35918 12.1875 6.5 12.1875C9.64082 12.1875 12.1875 9.64082 12.1875 6.5C12.1875 3.35918 9.64082 0.8125 6.5 0.8125ZM6.5 11.2227C3.89238 11.2227 1.77734 9.10762 1.77734 6.5C1.77734 3.89238 3.89238 1.77734 6.5 1.77734C9.10762 1.77734 11.2227 3.89238 11.2227 6.5C11.2227 9.10762 9.10762 11.2227 6.5 11.2227Z" fill="white"/>
</g>
<defs>
<clipPath id="clip0_14128_2">
<rect width="13" height="13" fill="white"/>
</clipPath>
</defs>
</svg>
