<svg width="40" height="29" viewBox="0 0 40 29" fill="none" xmlns="http://www.w3.org/2000/svg">
<path d="M37.1429 0H2.85714C2.09938 0 1.37266 0.301019 0.836838 0.836838C0.301019 1.37266 0 2.09938 0 2.85714V25.7143C0 26.472 0.301019 27.1988 0.836838 27.7346C1.37266 28.2704 2.09938 28.5714 2.85714 28.5714H37.1429C37.9006 28.5714 38.6273 28.2704 39.1632 27.7346C39.699 27.1988 40 26.472 40 25.7143V2.85714C40 2.09938 39.699 1.37266 39.1632 0.836838C38.6273 0.301019 37.9006 0 37.1429 0V0ZM34 2.85714L20 12.5429L6 2.85714H34ZM2.85714 25.7143V4.15714L19.1857 15.4571C19.4249 15.623 19.709 15.7119 20 15.7119C20.291 15.7119 20.5751 15.623 20.8143 15.4571L37.1429 4.15714V25.7143H2.85714Z" fill="#A1A1A1"/>
</svg>
